<svg height="16.194" width="59.716" xmlns="http://www.w3.org/2000/svg"><path d="M55.31 3.313C54.034 1.76 52.588 0 49.734 0s-4.3 1.76-5.577 3.313c-1.217 1.481-2.267 2.76-4.4 2.76s-3.186-1.279-4.4-2.76C34.082 1.76 32.636 0 29.783 0s-4.3 1.76-5.575 3.313c-1.217 1.481-2.268 2.76-4.4 2.76s-3.185-1.279-4.4-2.76C14.133 1.76 12.687 0 9.835 0s-4.3 1.76-5.573 3.313C3.076 4.758 2.041 6.002.009 6.061V7.58c2.75-.063 4.175-1.778 5.427-3.3 1.215-1.48 2.265-2.759 4.4-2.759s3.185 1.279 4.4 2.759c1.275 1.554 2.721 3.313 5.574 3.313s4.3-1.759 5.576-3.313c1.216-1.48 2.266-2.759 4.4-2.759s3.186 1.279 4.4 2.759c1.274 1.554 2.72 3.313 5.573 3.313s4.3-1.759 5.577-3.313c1.217-1.48 2.268-2.759 4.4-2.759S52.923 2.8 54.141 4.28c1.276 1.554 2.722 3.313 5.577 3.313V6.076c-2.139-.003-3.19-1.282-4.408-2.763zm0 8.604c-1.276-1.554-2.722-3.314-5.576-3.314s-4.3 1.76-5.577 3.314c-1.217 1.48-2.267 2.758-4.4 2.758s-3.186-1.278-4.4-2.758c-1.275-1.554-2.721-3.314-5.574-3.314s-4.3 1.76-5.575 3.314c-1.217 1.48-2.268 2.758-4.4 2.758s-3.185-1.278-4.4-2.758c-1.275-1.554-2.721-3.314-5.573-3.314s-4.3 1.76-5.573 3.314C3.076 13.36 2.041 14.604.009 14.665v1.517c2.75-.061 4.175-1.777 5.427-3.3 1.215-1.48 2.265-2.759 4.4-2.759s3.185 1.279 4.4 2.759c1.275 1.553 2.721 3.314 5.574 3.314s4.3-1.761 5.576-3.314c1.216-1.48 2.266-2.759 4.4-2.759s3.186 1.279 4.4 2.759c1.274 1.553 2.72 3.314 5.573 3.314s4.3-1.761 5.577-3.314c1.217-1.48 2.268-2.759 4.4-2.759s3.187 1.279 4.405 2.759c1.276 1.553 2.722 3.314 5.577 3.314v-1.519c-2.139-.002-3.19-1.28-4.408-2.76z" fill="#f4586f"/></svg>