<svg height="64.905" width="115.182" xmlns="http://www.w3.org/2000/svg"><path d="M25.112 61.365a3.541 3.541 0 0 1-3.542 3.54 3.53 3.53 0 0 1-3.541-3.54 3.54 3.54 0 0 1 3.541-3.542 3.55 3.55 0 0 1 3.542 3.542zm18.009 0a3.54 3.54 0 0 1-3.539 3.54 3.528 3.528 0 0 1-3.54-3.54 3.537 3.537 0 0 1 3.54-3.542 3.55 3.55 0 0 1 3.538 3.542zm18.011 0a3.528 3.528 0 0 1-3.54 3.54 3.541 3.541 0 0 1-3.537-3.54 3.551 3.551 0 0 1 3.537-3.542 3.537 3.537 0 0 1 3.538 3.542zm18.012 0a3.527 3.527 0 0 1-3.539 3.54 3.54 3.54 0 0 1-3.54-3.54 3.55 3.55 0 0 1 3.54-3.542 3.537 3.537 0 0 1 3.538 3.542zm18.012 0a3.525 3.525 0 0 1-3.52 3.54 3.539 3.539 0 0 1-3.555-3.54 3.548 3.548 0 0 1 3.555-3.54 3.534 3.534 0 0 1 3.52 3.538zm18.027 0a3.54 3.54 0 0 1-3.539 3.54 3.528 3.528 0 0 1-3.535-3.54 3.537 3.537 0 0 1 3.535-3.54 3.549 3.549 0 0 1 3.539 3.538zM3.56 57.823a3.486 3.486 0 0 1 2.493 1.051 3.492 3.492 0 0 1 0 4.983 3.541 3.541 0 0 1-6.054-2.492 3.574 3.574 0 0 1 1.043-2.492 3.5 3.5 0 0 1 2.518-1.05zm21.552-15.936a3.539 3.539 0 0 1-3.542 3.537 3.527 3.527 0 0 1-3.54-3.537 3.542 3.542 0 0 1 3.541-3.54 3.554 3.554 0 0 1 3.541 3.54zm18.007 0a3.535 3.535 0 0 1-3.537 3.537 3.536 3.536 0 0 1-3.54-3.537 3.551 3.551 0 0 1 3.54-3.54 3.55 3.55 0 0 1 3.537 3.54zm18.012 0a3.525 3.525 0 0 1-3.54 3.537 3.538 3.538 0 0 1-3.537-3.537 3.553 3.553 0 0 1 3.537-3.54 3.539 3.539 0 0 1 3.539 3.54zm18.012 0a3.525 3.525 0 0 1-3.54 3.537 3.537 3.537 0 0 1-3.54-3.537 3.552 3.552 0 0 1 3.541-3.54 3.539 3.539 0 0 1 3.539 3.54zm18.012 0a3.523 3.523 0 0 1-3.52 3.537 3.519 3.519 0 0 1-3.536-3.537 3.534 3.534 0 0 1 3.537-3.542 3.538 3.538 0 0 1 3.52 3.542zm18.025 0a3.535 3.535 0 0 1-3.537 3.537 3.526 3.526 0 0 1-3.536-3.537 3.541 3.541 0 0 1 3.537-3.542 3.551 3.551 0 0 1 3.537 3.542zM3.559 38.344a3.563 3.563 0 0 1 3.541 3.54 3.647 3.647 0 0 1-1.045 2.513 3.7 3.7 0 0 1-5.012 0A3.651 3.651 0 0 1 0 41.888a3.557 3.557 0 0 1 3.559-3.54zM25.111 23.02a3.554 3.554 0 0 1-3.542 3.54 3.542 3.542 0 0 1-3.541-3.54 3.532 3.532 0 0 1 3.541-3.542 3.543 3.543 0 0 1 3.542 3.542zm18.007 0a3.55 3.55 0 0 1-3.537 3.54 3.551 3.551 0 0 1-3.54-3.54 3.541 3.541 0 0 1 3.54-3.542 3.54 3.54 0 0 1 3.537 3.542zm18.012 0a3.539 3.539 0 0 1-3.54 3.54 3.553 3.553 0 0 1-3.537-3.54 3.542 3.542 0 0 1 3.537-3.542 3.529 3.529 0 0 1 3.539 3.542zm18.012 0a3.539 3.539 0 0 1-3.54 3.54 3.552 3.552 0 0 1-3.541-3.54 3.542 3.542 0 0 1 3.541-3.542 3.529 3.529 0 0 1 3.54 3.542zm18.029 0a3.55 3.55 0 0 1-3.537 3.539 3.532 3.532 0 0 1-3.537-3.539 3.524 3.524 0 0 1 3.537-3.542 3.541 3.541 0 0 1 3.537 3.542zm18.009 0a3.549 3.549 0 0 1-3.537 3.539 3.539 3.539 0 0 1-3.537-3.539 3.531 3.531 0 0 1 3.537-3.542 3.54 3.54 0 0 1 3.537 3.542zM3.558 19.481a3.572 3.572 0 0 1 2.5 1.029 3.64 3.64 0 0 1 1.045 2.513 3.592 3.592 0 0 1-1.045 2.492 3.687 3.687 0 0 1-5.012 0 3.566 3.566 0 0 1 0-5 3.617 3.617 0 0 1 2.512-1.034zM25.112 3.539a3.538 3.538 0 0 1-3.542 3.539 3.526 3.526 0 0 1-3.541-3.539A3.541 3.541 0 0 1 21.57.002a3.553 3.553 0 0 1 3.542 3.537zm18.007 0a3.526 3.526 0 0 1-3.537 3.539 3.536 3.536 0 0 1-3.54-3.539 3.55 3.55 0 0 1 3.54-3.537 3.54 3.54 0 0 1 3.537 3.537zm18.012 0a3.524 3.524 0 0 1-3.54 3.539 3.537 3.537 0 0 1-3.537-3.539A3.552 3.552 0 0 1 57.591.002a3.539 3.539 0 0 1 3.539 3.537zm18.012 0a3.524 3.524 0 0 1-3.54 3.539 3.537 3.537 0 0 1-3.541-3.539A3.551 3.551 0 0 1 75.603.002a3.538 3.538 0 0 1 3.54 3.537zm18.029 0a3.536 3.536 0 0 1-3.537 3.539 3.534 3.534 0 0 1-3.555-3.539A3.55 3.55 0 0 1 93.635 0a3.552 3.552 0 0 1 3.537 3.539zm18.009 0a3.535 3.535 0 0 1-3.537 3.539 3.525 3.525 0 0 1-3.537-3.539A3.542 3.542 0 0 1 111.644 0a3.551 3.551 0 0 1 3.537 3.539zM3.559.002a3.561 3.561 0 0 1 2.5 1.025 3.68 3.68 0 0 1 1.045 2.512 3.558 3.558 0 0 1-1.045 2.5 3.539 3.539 0 0 1-6.054-2.5 3.6 3.6 0 0 1 1.042-2.492A3.54 3.54 0 0 1 3.559.002z" fill="#f4586f"/></svg>