<svg height="638.601" width="494.836" xmlns="http://www.w3.org/2000/svg"><clipPath id="a"><path d="M319.3 0c176.345 0-67.066 208.923 88.593 319.3s87.752 319.3-88.593 319.3S0 495.645 0 319.3 142.956 0 319.3 0z"/></clipPath><linearGradient id="b" gradientUnits="objectBoundingBox" x1=".5" x2=".5" y1="1"><stop offset="0" stop-color="#dddff9"/><stop offset="1" stop-color="#5864ff"/></linearGradient><path d="M319.3 0c176.345 0-67.066 208.923 88.593 319.3s87.752 319.3-88.593 319.3S0 495.645 0 319.3 142.956 0 319.3 0z" fill="#5864ff"/><g clip-path="url(#a)"><path d="M175.536 638.6c-176.345 0 67.064-208.922-88.593-319.3S-.809 0 175.536 0s319.3 142.956 319.3 319.3-142.955 319.3-319.3 319.3z" fill="url(#b)" opacity=".3"/></g></svg>