<svg fill="none" height="28" width="136" xmlns="http://www.w3.org/2000/svg"><g fill="#fff"><path d="m22.845 10.72-5.213 5.037-1.289-1.288a1.591 1.591 0 0 0-2.284 0 1.591 1.591 0 0 0 0 2.284l2.284 2.285c.351.351.82.468 1.289.468s.996-.176 1.464-.468l6.034-5.858a1.592 1.592 0 0 0 0-2.285c-.703-.644-1.64-.82-2.285-.175z"/><path d="M34.385 8.787a11.66 11.66 0 0 0-6.326-3.574c-1.29-2.108-3.398-3.749-5.682-4.569C21.264.176 20.092 0 18.803 0 12.946 0 8.025 4.569 7.733 10.251 3.28 10.895 0 14.644 0 19.038 0 23.958 4.1 28 8.962 28h16.93c6.384 0 11.598-5.213 11.598-11.54 0-2.812-1.113-5.565-3.105-7.673zm-8.61 16.108H8.786c-3.28 0-5.682-2.46-5.682-5.682 0-3.221 2.636-5.682 5.682-5.682h1.933v-2.284c0-4.393 3.573-7.967 7.966-7.967.996 0 1.816.176 2.636.469a8.075 8.075 0 0 1 4.394 3.749l.468.82.82.176c1.933.175 3.925 1.113 5.214 2.636 1.464 1.64 2.284 3.573 2.284 5.682-.293 4.334-4.042 8.083-8.728 8.083zm31.295-7.653c0 1.617-.601 2.856-1.804 3.715-1.196.852-2.953 1.277-5.274 1.277-2.117 0-3.777-.375-4.98-1.125s-1.977-1.886-2.32-3.41l3.34-.55c.226.874.667 1.511 1.324 1.91.656.39 1.566.586 2.73.586 2.414 0 3.621-.735 3.621-2.204 0-.468-.14-.855-.422-1.16-.273-.304-.664-.558-1.172-.761-.5-.204-1.465-.45-2.894-.739-1.235-.289-2.094-.52-2.578-.691a7.86 7.86 0 0 1-1.313-.621 3.967 3.967 0 0 1-.996-.867 3.839 3.839 0 0 1-.644-1.184c-.149-.453-.223-.973-.223-1.559 0-1.492.558-2.632 1.676-3.421 1.125-.797 2.757-1.196 4.898-1.196 2.047 0 3.582.32 4.605.961 1.032.64 1.696 1.7 1.993 3.176l-3.352.457c-.172-.711-.523-1.246-1.055-1.606-.523-.359-1.277-.539-2.261-.539-2.094 0-3.14.657-3.14 1.97 0 .429.108.78.327 1.054.227.273.559.508.996.703.438.188 1.325.426 2.66.715 1.586.336 2.72.648 3.399.937.687.282 1.23.614 1.629.996.398.375.703.829.914 1.36.21.523.316 1.129.316 1.816zm5.543 4.992c-1.226 0-2.183-.332-2.87-.996-.688-.672-1.032-1.613-1.032-2.824 0-1.312.426-2.312 1.277-3 .86-.687 2.102-1.039 3.727-1.055l2.73-.046v-.645c0-.828-.144-1.441-.433-1.84-.29-.406-.762-.61-1.418-.61-.61 0-1.059.141-1.348.423-.281.273-.457.73-.527 1.37l-3.434-.163c.211-1.235.774-2.168 1.688-2.801.922-.64 2.175-.961 3.761-.961 1.602 0 2.836.394 3.704 1.183.867.79 1.3 1.91 1.3 3.364v4.617c0 .71.078 1.203.235 1.477.164.265.433.398.808.398.25 0 .492-.023.727-.07v1.78c-.195.048-.371.09-.527.13-.157.039-.313.07-.47.094a6.856 6.856 0 0 1-1.113.082c-.828 0-1.441-.204-1.84-.61-.39-.406-.624-1.004-.702-1.793h-.07c-.923 1.664-2.313 2.496-4.173 2.496zm3.832-6.105-1.687.023c-.766.032-1.309.117-1.63.258-.32.133-.565.34-.737.621-.164.281-.246.656-.246 1.125 0 .602.136 1.051.41 1.348.28.289.652.433 1.113.433.516 0 .984-.14 1.406-.421.43-.282.766-.668 1.008-1.16a3.59 3.59 0 0 0 .363-1.583zm9.528 6.105c-1.227 0-2.184-.332-2.871-.996-.688-.672-1.032-1.613-1.032-2.824 0-1.312.426-2.312 1.278-3 .859-.687 2.101-1.039 3.726-1.055l2.73-.046v-.645c0-.828-.144-1.441-.433-1.84-.289-.406-.762-.61-1.418-.61-.61 0-1.058.141-1.347.423-.282.273-.458.73-.528 1.37l-3.433-.163c.21-1.235.773-2.168 1.687-2.801.922-.64 2.176-.961 3.762-.961 1.601 0 2.836.394 3.703 1.183.867.79 1.3 1.91 1.3 3.364v4.617c0 .71.079 1.203.235 1.477.164.265.434.398.809.398.25 0 .492-.023.726-.07v1.78c-.195.048-.37.09-.527.13a4.95 4.95 0 0 1-.469.094 6.856 6.856 0 0 1-1.113.082c-.828 0-1.442-.204-1.84-.61-.39-.406-.625-1.004-.703-1.793h-.07c-.922 1.664-2.313 2.496-4.172 2.496zm3.832-6.105-1.688.023c-.765.032-1.308.117-1.629.258-.32.133-.566.34-.738.621-.164.281-.246.656-.246 1.125 0 .602.137 1.051.41 1.348.281.289.652.433 1.113.433.516 0 .985-.14 1.407-.421.43-.282.765-.668 1.007-1.16.243-.5.364-1.028.364-1.583zm19.992 1.113c0 1.617-.602 2.856-1.805 3.715-1.195.852-2.953 1.277-5.273 1.277-2.117 0-3.778-.375-4.98-1.125s-1.977-1.886-2.321-3.41l3.34-.55c.226.874.668 1.511 1.324 1.91.656.39 1.566.586 2.73.586 2.415 0 3.622-.735 3.622-2.204 0-.468-.141-.855-.422-1.16-.274-.304-.664-.558-1.172-.761-.5-.204-1.465-.45-2.895-.739-1.234-.289-2.093-.52-2.578-.691a7.856 7.856 0 0 1-1.312-.621 3.965 3.965 0 0 1-.996-.867 3.837 3.837 0 0 1-.645-1.184 5.017 5.017 0 0 1-.223-1.559c0-1.492.559-2.632 1.676-3.421 1.125-.797 2.758-1.196 4.899-1.196 2.047 0 3.582.32 4.605.961 1.031.64 1.695 1.7 1.992 3.176l-3.351.457c-.172-.711-.524-1.246-1.055-1.606-.523-.359-1.277-.539-2.262-.539-2.093 0-3.14.657-3.14 1.97 0 .429.11.78.328 1.054.226.273.558.508.996.703.437.188 1.324.426 2.66.715 1.586.336 2.719.648 3.399.937.687.282 1.23.614 1.628.996.399.375.703.829.914 1.36.211.523.317 1.129.317 1.816zm14.613-1.64c0 2.117-.426 3.754-1.277 4.91-.844 1.148-2.039 1.722-3.586 1.722-.891 0-1.668-.191-2.332-.574-.656-.39-1.16-.95-1.512-1.676h-.07c.047.235.07.946.07 2.133v4.863h-3.293V12.238c0-1.195-.031-2.168-.094-2.918h3.2c.039.14.07.418.093.832.032.414.047.825.047 1.23h.047c.742-1.554 2.094-2.331 4.055-2.331 1.476 0 2.621.57 3.433 1.71.813 1.133 1.219 2.747 1.219 4.84zm-3.433 0c0-2.844-.872-4.266-2.614-4.266-.875 0-1.547.383-2.015 1.148-.461.766-.692 1.836-.692 3.211 0 1.368.231 2.426.692 3.176.468.742 1.132 1.113 1.992 1.113 1.758 0 2.637-1.46 2.637-4.382zm9.035 6.632c-1.227 0-2.184-.332-2.871-.996-.688-.672-1.032-1.613-1.032-2.824 0-1.312.426-2.312 1.278-3 .859-.687 2.101-1.039 3.726-1.055l2.731-.046v-.645c0-.828-.145-1.441-.434-1.84-.289-.406-.762-.61-1.418-.61-.609 0-1.058.141-1.347.423-.282.273-.457.73-.528 1.37l-3.433-.163c.211-1.235.773-2.168 1.687-2.801.922-.64 2.176-.961 3.762-.961 1.601 0 2.836.394 3.703 1.183.867.79 1.301 1.91 1.301 3.364v4.617c0 .71.078 1.203.234 1.477.164.265.434.398.809.398.25 0 .492-.023.726-.07v1.78c-.195.048-.371.09-.527.13-.156.039-.313.07-.469.094s-.324.043-.504.058a6.854 6.854 0 0 1-.609.024c-.828 0-1.442-.203-1.84-.61-.391-.406-.625-1.004-.703-1.793h-.07c-.922 1.664-2.313 2.496-4.172 2.496zm3.832-6.105-1.688.023c-.765.032-1.308.117-1.629.258-.32.133-.566.34-.738.621-.164.281-.246.656-.246 1.125 0 .602.137 1.051.41 1.348.281.289.652.433 1.113.433.516 0 .985-.14 1.407-.421a2.866 2.866 0 0 0 1.007-1.16c.243-.5.364-1.028.364-1.583zM130.441 22V4.61h3.293V22z"/></g></svg>